# xmcd
#
# Track frame offsets: 
#        150
#        11896
#        25033
#        35838
#        55468
#        71082
#        81805
#        92918
#        104915
#        121162
#        133458
#        150409
#        168912
#        187444
#        199375
#        211699
#        228307
#        240156
#        256593
#        268356
#
# Disc length: 3798 seconds
#
# Revision: 0
# Processed by: cddbd v1.5.2PL0 Copyright (c) Steve Scherf et al.
# Submitted via: ExactAudioCopyFreeDBPlugin 1.0
#
DISCID=250ed414
DTITLE=Various Artist - Don't Rock The Jukebox! Cd 3
DYEAR=1900
DGENRE=Country
TTITLE0=Johnny Cash - 01 Ring of Fire
TTITLE1=Dolly Parton, Tammy Wynette, Loretta Lynn - 02 Wings Of A Dove
TTITLE2=Roy Orbinson - 03 All I Have To Do Is Dream
TTITLE3=Marty Robbins - 04 El Paso
TTITLE4=John Denver - 05 Thank God I'm A Country Boy
TTITLE5=Kris Kristofferson - 06 Help Me Make It Through The Night
TTITLE6=Hank Locklin - 07 Send Me The Pillow You Dream On
TTITLE7=Tammy Wynette - 08 Stand By Your Man
TTITLE8=Diamond Rio - 09 One More Day
TTITLE9=Charlie Rich - 10 The Most Beautiful Girl
TTITLE10=Carrie Underwood - 11 Jesus, Take The Wheel
TTITLE11=Buddy Jewell - 12 Today I Started Loving You Again (Duet with
TTITLE11=Miranda Lambert)
TTITLE12=George Jones with Patty Loveless - 13 You Don't Seem To Miss 
TTITLE12=Me
TTITLE13=Guy Mitchell - 14 Heartaches By The Number
TTITLE14=Pam Tillis - 15 When You Walk In The Room
TTITLE15=Mary Chapin Carpenter - 16 Shut Up And Kiss Me
TTITLE16=Skeeter Davis - 17 The End Of The World
TTITLE17=Bobby Bare and The Family - 18 Singing In The Kitchen
TTITLE18=Johnny Paycheck - 19 Take This Job And Shove It
TTITLE19=Waylon Jennings - 20 Storms Never Last (special guest appeara
TTITLE19=nce by Jessi Colter)
EXTD=
EXTT0=
EXTT1=
EXTT2=
EXTT3=
EXTT4=
EXTT5=
EXTT6=
EXTT7=
EXTT8=
EXTT9=
EXTT10=
EXTT11=
EXTT12=
EXTT13=
EXTT14=
EXTT15=
EXTT16=
EXTT17=
EXTT18=
EXTT19=
PLAYORDER=
